<?xml version="1.0" encoding="utf-8"?>
<!-- Generator: Adobe Illustrator 17.0.0, SVG Export Plug-In . SVG Version: 6.00 Build 0)  -->
<!DOCTYPE svg PUBLIC "-//W3C//DTD SVG 1.1//EN" "http://www.w3.org/Graphics/SVG/1.1/DTD/svg11.dtd">
<svg version="1.1" id="Layer_1" xmlns="http://www.w3.org/2000/svg" xmlns:xlink="http://www.w3.org/1999/xlink" x="0px" y="0px"
	 width="114.682px" height="32.934px" viewBox="0 0 114.682 32.934" enable-background="new 0 0 114.682 32.934"
	 xml:space="preserve">
<g>
	<g>
		<g>
			<path fill="#414242" d="M40.161,8.669c-0.928,0-1.596,0.452-1.935,1.318l-5.575,15.697h4.294l1.045-3.371h5.864l1.092,3.371
				h4.295L43.059,8.669H40.161z M42.73,18.878h-3.618l1.809-5.502L42.73,18.878z"/>
		</g>
		<g>
			<path fill="#414242" d="M61.863,16.484c0.425-0.295,0.775-0.655,1.048-1.077c0.38-0.622,0.572-1.384,0.572-2.266
				c0-1.395-0.487-2.521-1.46-3.354c-0.944-0.741-2.309-1.117-4.056-1.117h-5.983c-0.566,0-1.054,0.201-1.452,0.598
				c-0.397,0.397-0.598,0.886-0.598,1.452v14.966h7.795c1.971,0,3.53-0.457,4.64-1.366c1.086-0.949,1.636-2.282,1.636-3.96
				c0-1.045-0.228-1.909-0.679-2.569C62.96,17.264,62.469,16.827,61.863,16.484z M58.95,14.625c-0.318,0.238-0.856,0.359-1.6,0.359
				h-3.506v-2.785h3.459c1.039,0,1.465,0.166,1.647,0.312c0.292,0.219,0.434,0.565,0.434,1.057S59.242,14.406,58.95,14.625z
				 M53.844,18.466h3.601c0.899,0,1.532,0.136,1.878,0.402c0.36,0.284,0.535,0.74,0.535,1.395c0,0.649-0.171,1.087-0.526,1.34
				c-0.412,0.303-1.031,0.456-1.84,0.456h-3.648V18.466z"/>
		</g>
		<g>
			<path fill="#414242" d="M78.715,10.622c-1.579-1.612-3.626-2.429-6.084-2.429c-2.491,0-4.539,0.818-6.094,2.439
				c-0.557,0.62-1.014,1.341-1.36,2.143c-0.542,1.255-0.816,2.735-0.816,4.4s0.275,3.14,0.817,4.383
				c0.346,0.795,0.805,1.507,1.365,2.118c1.485,1.584,3.533,2.387,6.089,2.387c2.522,0,4.57-0.802,6.091-2.39
				c0.752-0.819,1.321-1.798,1.693-2.913c0.354-1.065,0.534-2.271,0.534-3.585c0-1.313-0.18-2.523-0.534-3.596
				C80.045,12.459,79.476,11.468,78.715,10.622z M69.525,13.164c0.73-0.905,1.746-1.345,3.106-1.345c1.33,0,2.348,0.442,3.104,1.342
				c0.771,0.979,1.161,2.33,1.161,4.016c0,1.684-0.39,3.018-1.155,3.96c-0.762,0.909-1.78,1.35-3.111,1.35
				c-1.361,0-2.377-0.44-3.11-1.35c-0.735-0.882-1.108-2.215-1.108-3.961C68.414,15.429,68.788,14.078,69.525,13.164z"/>
		</g>
		<g>
			<path fill="#414242" d="M88.499,8.669h-4.701c-0.566,0-1.054,0.201-1.451,0.598c-0.397,0.397-0.598,0.885-0.598,1.452v14.966
				h5.849c1.6,0,2.765-0.113,3.558-0.345c0.83-0.232,1.62-0.635,2.347-1.197c0.866-0.667,1.573-1.64,2.106-2.904
				c0.456-1.204,0.687-2.571,0.687-4.061c0-2.795-0.652-4.948-1.943-6.405C93.056,9.376,91.087,8.669,88.499,8.669z M92.195,17.176
				c0,1.802-0.322,3.067-0.959,3.763c-0.657,0.743-1.722,1.119-3.164,1.119h-2.366v-9.86h2.794c1.29,0,2.194,0.374,2.77,1.151
				C91.883,14.138,92.195,15.426,92.195,17.176z"/>
		</g>
		<g>
			<path fill="#414242" d="M111.106,10.622c-1.579-1.612-3.626-2.429-6.084-2.429c-2.491,0-4.539,0.818-6.094,2.439
				c-1.444,1.608-2.176,3.81-2.176,6.543c0,2.735,0.733,4.921,2.181,6.501c1.485,1.584,3.533,2.387,6.089,2.387
				c2.522,0,4.57-0.802,6.091-2.39c1.478-1.608,2.227-3.794,2.227-6.498C113.341,14.475,112.592,12.273,111.106,10.622z
				 M101.916,13.164c0.73-0.905,1.746-1.345,3.106-1.345c1.33,0,2.348,0.442,3.104,1.342c0.771,0.979,1.161,2.33,1.161,4.016
				c0,1.684-0.39,3.018-1.155,3.96c-0.762,0.909-1.78,1.35-3.111,1.35c-1.361,0-2.377-0.44-3.11-1.35
				c-0.735-0.882-1.108-2.215-1.108-3.961C100.805,15.429,101.179,14.078,101.916,13.164z"/>
		</g>
	</g>
	<g>
		<g>
			<radialGradient id="SVGID_1_" cx="15.4159" cy="16.4671" r="14.0752" gradientUnits="userSpaceOnUse">
				<stop  offset="0" style="stop-color:#D31B1E"/>
				<stop  offset="1" style="stop-color:#971B1E"/>
			</radialGradient>
			<path fill="url(#SVGID_1_)" d="M1.341,5.742c0-1.843,1.508-3.351,3.351-3.351H26.14c1.843,0,3.351,1.508,3.351,3.351v21.449
				c0,1.843-1.508,3.351-3.351,3.351H4.691c-1.843,0-3.351-1.508-3.351-3.351V5.742z"/>
		</g>
		<g>
			<g>
				<g>
					<polygon fill="#FFFFFF" points="20.747,8.072 18.984,8.072 18.984,9.883 20.747,11.645 					"/>
				</g>
				<g>
					<path fill="#FFFFFF" d="M15.416,8.072l-8.464,8.463h2.479v8.326h0.001c2.445-1.512,5.328-2.385,8.418-2.385l-0.014,0.013
						c1.209,0,2.399,0.085,3.564,0.246v-6.201h2.478L15.416,8.072z"/>
				</g>
			</g>
		</g>
	</g>
</g>
</svg>
